<?xml version="1.0" encoding="UTF-8" standalone="no"?>
<!-- Created with Inkscape (http://www.inkscape.org/) -->

<svg
   xmlns:dc="http://purl.org/dc/elements/1.1/"
   xmlns:cc="http://creativecommons.org/ns#"
   xmlns:rdf="http://www.w3.org/1999/02/22-rdf-syntax-ns#"
   xmlns:svg="http://www.w3.org/2000/svg"
   xmlns="http://www.w3.org/2000/svg"
   xmlns:sodipodi="http://sodipodi.sourceforge.net/DTD/sodipodi-0.dtd"
   xmlns:inkscape="http://www.inkscape.org/namespaces/inkscape"
   id="svg2"
   version="1.1"
   inkscape:version="0.91 r13725"
   xml:space="preserve"
   width="809.99994"
   height="1261.5687"
   viewBox="0 0 809.99993 1261.5687"
   sodipodi:docname="publicdomainq-arcade_video_game_machine.svg"
   inkscape:export-filename="/media/sdb1/_GRAFIKA/Publicdomainq/publicdomainq-arcade_video_game_machine.png"
   inkscape:export-xdpi="89.410088"
   inkscape:export-ydpi="89.410088"><title
     id="title8111">Arcade video game machine</title><metadata
     id="metadata8"><rdf:RDF><cc:Work
         rdf:about=""><dc:format>image/svg+xml</dc:format><dc:type
           rdf:resource="http://purl.org/dc/dcmitype/StillImage" /><dc:title>Arcade video game machine</dc:title><cc:license
           rdf:resource="http://creativecommons.org/publicdomain/zero/1.0/" /><dc:subject><rdf:Bag><rdf:li>electric</rdf:li><rdf:li>arcade</rdf:li><rdf:li>retro</rdf:li><rdf:li>game</rdf:li><rdf:li>console</rdf:li><rdf:li>entertainment</rdf:li><rdf:li>play</rdf:li><rdf:li>publicdomainq.net</rdf:li></rdf:Bag></dc:subject><dc:description>This image was adapted from a picture posted to publicdomainq.net. All of the images on these sites are in the public domain i.e. CC0. This site is only in Japanese but can be easily navigated with Google Translate.</dc:description></cc:Work><cc:License
         rdf:about="http://creativecommons.org/publicdomain/zero/1.0/"><cc:permits
           rdf:resource="http://creativecommons.org/ns#Reproduction" /><cc:permits
           rdf:resource="http://creativecommons.org/ns#Distribution" /><cc:permits
           rdf:resource="http://creativecommons.org/ns#DerivativeWorks" /></cc:License></rdf:RDF></metadata><defs
     id="defs6"><clipPath
       clipPathUnits="userSpaceOnUse"
       id="clipPath40"><path
         d="m 448.219,192.863 131.347,0.75 37.102,0.215 23.395,0.133 114.503,0.656 c -0.062,-0.004 -0.128,-0.004 -0.191,-0.004 l -306.156,-1.75 m -324.895,16.528 c -0.004,0.082 -0.004,0.164 -0.004,0.246 l -1.269,224.289 0.34,-59.723 0.062,-11 0.477,-84.238 0.062,-11.016 0.332,-58.558 m 648.332,223.214 -1.543,270.961 c 0.004,-0.082 0.004,-0.164 0.004,-0.246 l 1.539,-270.715 m -632.851,285.77 c 0.09,0.004 0.179,0.004 0.265,0.004 l 306.157,1.734 -306.422,-1.738"
         id="path42"
         inkscape:connector-curvature="0" /></clipPath><linearGradient
       x1="0"
       y1="0"
       x2="1"
       y2="0"
       gradientUnits="userSpaceOnUse"
       gradientTransform="matrix(575.267,579.888,579.888,-575.267,159.077,166.533)"
       spreadMethod="pad"
       id="linearGradient44"><stop
         style="stop-opacity:1;stop-color:#fcd79a"
         offset="0"
         id="stop46" /><stop
         style="stop-opacity:1;stop-color:#fff98b"
         offset="0.503196"
         id="stop48" /><stop
         style="stop-opacity:1;stop-color:#fab96a"
         offset="1"
         id="stop50" /></linearGradient><clipPath
       clipPathUnits="userSpaceOnUse"
       id="clipPath86"><path
         d="m 773.008,194.723 -649.578,-3.715 -2.992,527.262 649.574,3.683 2.996,-527.23"
         id="path88"
         inkscape:connector-curvature="0" /></clipPath><clipPath
       clipPathUnits="userSpaceOnUse"
       id="clipPath106"><path
         d="m 773.008,194.723 -649.578,-3.715 -2.992,527.262 649.574,3.683 2.996,-527.23"
         id="path108"
         inkscape:connector-curvature="0" /></clipPath><clipPath
       clipPathUnits="userSpaceOnUse"
       id="clipPath112"><path
         d="m 123.43,191.008 -0.106,18.383 c 0.192,-10.098 8.512,-18.278 18.629,-18.278 0.035,0 0.07,0 0.106,0 l 97.703,0.559 0,0 -116.332,-0.664"
         id="path114"
         inkscape:connector-curvature="0" /></clipPath><clipPath
       clipPathUnits="userSpaceOnUse"
       id="clipPath124"><path
         d="m 773.008,194.723 -649.578,-3.715 -2.992,527.262 649.574,3.683 2.996,-527.23"
         id="path126"
         inkscape:connector-curvature="0" /></clipPath><clipPath
       clipPathUnits="userSpaceOnUse"
       id="clipPath130"><path
         d="m 141.953,191.113 c -10.117,0 -18.437,8.18 -18.629,18.278 l -0.332,58.558 c 2.141,-2.629 4.438,-5.219 6.875,-7.765 23.656,-24.645 60.946,-45.766 107.571,-61.602 0.781,-2.312 1.554,-4.617 2.324,-6.91 l -97.703,-0.559 c -0.036,0 -0.071,0 -0.106,0"
         id="path132"
         inkscape:connector-curvature="0" /></clipPath><clipPath
       clipPathUnits="userSpaceOnUse"
       id="clipPath142"><path
         d="m 773.008,194.723 -649.578,-3.715 -2.992,527.262 649.574,3.683 2.996,-527.23"
         id="path144"
         inkscape:connector-curvature="0" /></clipPath><clipPath
       clipPathUnits="userSpaceOnUse"
       id="clipPath148"><path
         d="m 754.566,194.617 c 10.164,0.16 18.395,8.551 18.332,18.738 l 0,0.165 c 0,0 0,0 0.004,0 l 0.106,-18.797 -18.442,-0.106"
         id="path150"
         inkscape:connector-curvature="0" /></clipPath><clipPath
       clipPathUnits="userSpaceOnUse"
       id="clipPath160"><path
         d="m 773.008,194.723 -649.578,-3.715 -2.992,527.262 649.574,3.683 2.996,-527.23"
         id="path162"
         inkscape:connector-curvature="0" /></clipPath><clipPath
       clipPathUnits="userSpaceOnUse"
       id="clipPath166"><path
         d="m 640.063,193.961 c 7.175,2.164 14.167,4.441 20.953,6.836 3.5,0.5 6.964,0.984 10.386,1.457 29.657,4.078 55.965,6.969 74.852,8.84 12.586,1.246 21.851,2.039 26.644,2.426 l 0,-0.165 c 0.063,-10.187 -8.168,-18.578 -18.332,-18.738 l -114.503,-0.656"
         id="path168"
         inkscape:connector-curvature="0" /></clipPath><clipPath
       clipPathUnits="userSpaceOnUse"
       id="clipPath178"><path
         d="m 773.008,194.723 -649.578,-3.715 -2.992,527.262 649.574,3.683 2.996,-527.23"
         id="path180"
         inkscape:connector-curvature="0" /></clipPath><clipPath
       clipPathUnits="userSpaceOnUse"
       id="clipPath184"><path
         d="m 772.809,229.949 c 0,0 0,0 -0.004,0.004 l -0.223,39.512 0,0 0.227,-39.516"
         id="path186"
         inkscape:connector-curvature="0" /></clipPath><clipPath
       clipPathUnits="userSpaceOnUse"
       id="clipPath196"><path
         d="m 773.008,194.723 -649.578,-3.715 -2.992,527.262 649.574,3.683 2.996,-527.23"
         id="path198"
         inkscape:connector-curvature="0" /></clipPath><clipPath
       clipPathUnits="userSpaceOnUse"
       id="clipPath202"><path
         d="m 772.805,229.953 c -3.594,6.301 -8.504,14.895 -14.211,24.852 2.66,2.433 5.187,4.906 7.574,7.414 2.266,2.379 4.402,4.797 6.414,7.246 l 0.223,-39.512"
         id="path204"
         inkscape:connector-curvature="0" /></clipPath><clipPath
       clipPathUnits="userSpaceOnUse"
       id="clipPath214"><path
         d="m 773.008,194.723 -649.578,-3.715 -2.992,527.262 649.574,3.683 2.996,-527.23"
         id="path216"
         inkscape:connector-curvature="0" /></clipPath><clipPath
       clipPathUnits="userSpaceOnUse"
       id="clipPath220"><path
         d="m 771.965,378.293 0,0 -0.309,54.312 0.309,-54.312 m -649.914,55.633 -1.613,284.344 18.367,0.105 c -10.125,-0.203 -18.317,-8.578 -18.258,-18.734 l 1.504,-265.715 m 648.062,269.64 c -0.187,10.102 -8.515,18.282 -18.629,18.282 -0.035,0 -0.07,0 -0.105,0 l -306.152,-1.735 324.785,1.84 0.101,-18.387"
         id="path222"
         inkscape:connector-curvature="0" /></clipPath><clipPath
       clipPathUnits="userSpaceOnUse"
       id="clipPath232"><path
         d="m 773.008,194.723 -649.578,-3.715 -2.992,527.262 649.574,3.683 2.996,-527.23"
         id="path234"
         inkscape:connector-curvature="0" /></clipPath><clipPath
       clipPathUnits="userSpaceOnUse"
       id="clipPath238"><path
         d="m 122.391,374.203 -0.34,59.723 -1.504,265.715 c -0.059,10.156 8.133,18.531 18.258,18.734 l 306.422,1.738 306.152,1.735 c 0.035,0 0.07,0 0.105,0 10.114,0 18.442,-8.18 18.629,-18.282 l 1.543,-270.961 0.309,-54.312 c -1.836,2.191 -3.777,4.352 -5.82,6.484 -25.836,26.907 -67.911,49.618 -120.665,65.836 -7.394,14.848 -14.863,30.176 -21.371,43.68 -5.711,11.844 -10.683,22.285 -14.23,29.762 -3.547,7.476 -5.656,11.976 -5.664,11.988 l -0.699,1.492 -1.614,0.332 -0.664,-3.219 0.664,3.219 c -1.082,0.215 -2.203,0.262 -3.644,0.27 -8.992,-0.02 -30.488,-2.711 -58.586,-6.809 -84.149,-12.293 -225.426,-37.23 -241.567,-40.652 l 0,0 c -5.16,-1.106 -18.089,-2.676 -34.234,-4.324 -24.262,-2.489 -56.062,-5.235 -81.781,-7.36 -25.727,-2.125 -45.328,-3.621 -45.371,-3.625 l -3.981,-0.304 1.063,-3.848 c 0.008,-0.031 8.652,-31.301 20.316,-67.09 0.039,-0.117 0.078,-0.238 0.117,-0.359 -9.242,-6.668 -17.41,-13.692 -24.386,-21.024 -2.66,-2.797 -5.149,-5.644 -7.457,-8.539"
         id="path240"
         inkscape:connector-curvature="0" /></clipPath><clipPath
       clipPathUnits="userSpaceOnUse"
       id="clipPath250"><path
         d="m 773.008,194.723 -649.578,-3.715 -2.992,527.262 649.574,3.683 2.996,-527.23"
         id="path252"
         inkscape:connector-curvature="0" /></clipPath><clipPath
       clipPathUnits="userSpaceOnUse"
       id="clipPath256"><path
         d="m 234.758,206.477 c -9.922,3.496 -19.379,7.234 -28.328,11.191 -30.465,13.461 -55.008,29.477 -71.817,47.059 -4.441,4.652 -8.347,9.402 -11.683,14.238 l -0.477,84.238 c 3.438,5.098 7.5,10.106 12.16,15.008 6.227,6.574 13.512,12.926 21.778,19.016 5.246,-15.817 11.004,-32.172 16.812,-46.868 1.883,-4.754 3.766,-9.328 5.641,-13.66 -1.328,-4.929 -2.02,-9.961 -2.02,-15.082 l 0,-0.219 c 0.067,-17.324 8.047,-33.64 21.918,-48.121 5.063,-5.265 10.906,-10.324 17.473,-15.144 6.129,-16.02 12.48,-33.906 18.543,-51.656 m 520.484,54.16 c -6.031,10.508 -12.773,22.207 -19.695,34.152 -5.434,9.367 -10.973,18.887 -16.371,28.094 0,0.152 0,0.305 0,0.461 l 0,0.215 -0.399,0 c 0,0 0,0 0,0.004 l 0.399,0 c -0.063,17.324 -8.043,33.64 -21.914,48.121 -4.942,5.14 -10.629,10.082 -17,14.8 -0.129,0.176 -0.25,0.344 -0.371,0.504 -3.649,4.871 -10.418,16.891 -18.231,31.832 -3.816,7.285 -7.902,15.293 -12.078,23.598 14.219,-4.578 27.582,-9.637 39.973,-15.113 30.476,-13.465 55.027,-29.489 71.84,-47.071 3.984,-4.168 7.535,-8.418 10.628,-12.734 l 0.497,-87.258 c -3.207,-4.574 -6.922,-9.078 -11.118,-13.496 -1.949,-2.058 -4.004,-4.094 -6.16,-6.109"
         id="path258"
         inkscape:connector-curvature="0" /></clipPath><clipPath
       clipPathUnits="userSpaceOnUse"
       id="clipPath268"><path
         d="m 773.008,194.723 -649.578,-3.715 -2.992,527.262 649.574,3.683 2.996,-527.23"
         id="path270"
         inkscape:connector-curvature="0" /></clipPath><clipPath
       clipPathUnits="userSpaceOnUse"
       id="clipPath274"><path
         d="m 616.668,193.828 c 15.137,2.602 30.059,4.918 44.348,6.969 -6.786,-2.395 -13.778,-4.672 -20.953,-6.836 l -23.395,-0.133 m -379.23,4.754 c -46.625,15.836 -83.915,36.957 -107.571,61.602 -2.437,2.546 -4.734,5.136 -6.875,7.765 l -0.062,11.016 c 3.336,-4.836 7.242,-9.586 11.683,-14.238 16.809,-17.582 41.352,-33.598 71.817,-47.059 8.949,-3.957 18.406,-7.695 28.328,-11.191 0.902,-2.637 1.797,-5.27 2.68,-7.895 m 521.156,56.223 c -1.09,1.894 -2.207,3.843 -3.352,5.832 2.156,2.015 4.211,4.051 6.16,6.109 4.196,4.418 7.911,8.922 11.118,13.496 l 0.062,-10.777 0,0 c -2.012,-2.449 -4.148,-4.867 -6.414,-7.246 -2.387,-2.508 -4.914,-4.981 -7.574,-7.414 m -636.141,108.398 -0.062,11 c 2.308,2.895 4.797,5.742 7.457,8.539 6.976,7.332 15.144,14.356 24.386,21.024 0.707,-2.164 1.426,-4.348 2.157,-6.539 -8.266,-6.09 -15.551,-12.442 -21.778,-19.016 -4.66,-4.902 -8.722,-9.91 -12.16,-15.008 m 649.57,4.297 c -3.093,4.316 -6.644,8.566 -10.628,12.734 -16.813,17.582 -41.364,33.606 -71.84,47.071 -12.391,5.476 -25.754,10.535 -39.973,15.113 -1.359,2.703 -2.73,5.441 -4.102,8.195 52.754,-16.218 94.829,-38.929 120.665,-65.836 2.043,-2.132 3.984,-4.293 5.82,-6.484 l 0,0 0.058,-10.793"
         id="path276"
         inkscape:connector-curvature="0" /></clipPath><clipPath
       clipPathUnits="userSpaceOnUse"
       id="clipPath286"><path
         d="m 773.008,194.723 -649.578,-3.715 -2.992,527.262 649.574,3.683 2.996,-527.23"
         id="path288"
         inkscape:connector-curvature="0" /></clipPath><clipPath
       clipPathUnits="userSpaceOnUse"
       id="clipPath292"><path
         d="m 211.465,270.27 c -2.863,2.472 -5.524,4.992 -7.973,7.55 -13.062,13.676 -20.027,28.348 -20.094,43.606 l 0,0.191 c 0,1.535 0.071,3.067 0.211,4.59 3.137,-6.543 6.231,-12.215 9.231,-16.687 5.004,-7.411 11.59,-21.696 18.625,-39.25 m 499.148,67.156 c -2.91,4.918 -5.73,9.66 -8.418,14.144 -3.215,5.364 -6.23,10.348 -8.984,14.828 8.668,-9.25 14.547,-18.949 17.402,-28.972"
         id="path294"
         inkscape:connector-curvature="0" /></clipPath><clipPath
       clipPathUnits="userSpaceOnUse"
       id="clipPath304"><path
         d="m 773.008,194.723 -649.578,-3.715 -2.992,527.262 649.574,3.683 2.996,-527.23"
         id="path306"
         inkscape:connector-curvature="0" /></clipPath><clipPath
       clipPathUnits="userSpaceOnUse"
       id="clipPath310"><path
         d="m 216.215,258.133 c -6.567,4.82 -12.41,9.879 -17.473,15.144 -13.871,14.481 -21.851,30.797 -21.918,48.121 l 0,0.219 c 0,5.121 0.692,10.153 2.02,15.082 1.594,-3.687 3.187,-7.199 4.765,-10.492 -0.14,-1.523 -0.211,-3.055 -0.211,-4.59 l 0,-0.191 c 0.067,-15.258 7.032,-29.93 20.094,-43.606 2.449,-2.558 5.11,-5.078 7.973,-7.55 0.976,-2.438 1.965,-4.934 2.953,-7.489 0.598,-1.531 1.195,-3.082 1.797,-4.648 m 502.961,64.75 c -0.133,0.226 -0.266,0.453 -0.399,0.676 l 0.399,0 0,-0.215 c 0,-0.156 0,-0.309 0,-0.461 m -0.399,0.68 c -2.773,4.722 -5.507,9.367 -8.164,13.863 -2.855,10.023 -8.734,19.722 -17.402,28.972 -5.606,9.137 -10.109,16.188 -12.949,20.086 6.371,-4.718 12.058,-9.66 17,-14.8 13.871,-14.481 21.851,-30.797 21.914,-48.121 l -0.399,0"
         id="path312"
         inkscape:connector-curvature="0" /></clipPath><clipPath
       clipPathUnits="userSpaceOnUse"
       id="clipPath322"><path
         d="m 773.008,194.723 -649.578,-3.715 -2.992,527.262 649.574,3.683 2.996,-527.23"
         id="path324"
         inkscape:connector-curvature="0" /></clipPath><clipPath
       clipPathUnits="userSpaceOnUse"
       id="clipPath328"><path
         d="m 246.676,191.711 c -0.438,1.309 -0.875,2.625 -1.317,3.941 -7.921,23.629 -16.597,48.383 -24.816,69.512 -8.242,21.16 -15.922,38.578 -22.25,48.024 -5.75,8.535 -12.406,22.953 -18.977,39.589 -9.878,24.981 -19.687,55.055 -27.011,78.86 -3.664,11.902 -6.707,22.242 -8.832,29.597 -0.942,3.254 -1.703,5.922 -2.258,7.887 10.207,0.793 38.562,3.02 68.683,5.621 18.86,1.629 38.411,3.406 54.645,5.071 16.266,1.671 29.07,3.195 34.93,4.433 l 0,0 c 10.437,2.219 76.922,14.082 144.836,25.356 33.972,5.64 68.343,11.14 96.312,15.222 27.824,4.074 49.535,6.739 57.563,6.739 0.023,0 0.05,0 0.074,0 0.043,0 0.086,0 0.125,0 0.242,0 0.469,-0.004 0.68,-0.008 3.328,-7.071 16.597,-35.172 31.343,-65.258 8.528,-17.402 17.547,-35.469 25.434,-50.527 7.91,-15.09 14.57,-27.04 18.781,-32.711 3.738,-5 11.942,-18.184 21.938,-34.868 15.019,-25.066 34.257,-58.257 49.734,-85.171 7.738,-13.457 14.539,-25.344 19.402,-33.872 2.16,-3.781 3.938,-6.898 5.246,-9.199 -21.695,-1.797 -108.152,-9.59 -191.375,-26.336 l -131.347,-0.75 -201.543,-1.152 m 26.301,167.644 c 0.468,0 0.929,-0.328 2.418,-1.382 0.546,-0.387 1.168,-0.559 1.828,-0.559 4.511,0 11.023,7.957 11.023,7.957 0,0 0.586,4.91 -3.094,6.742 -3.687,1.828 -5.543,4.254 -10.445,6.114 -4.91,1.796 -34.375,9.054 -34.375,9.054 0,0 -4.887,-5.543 -3.027,-9.824 1.84,-4.289 0.023,-6.742 6.152,-9.172 6.145,-2.457 6.145,-2.457 9.231,-4.887 3.082,-2.425 -1.829,-4.281 10.437,-4.851 1.098,-0.055 2.063,-0.074 2.914,-0.074 2.688,0 4.231,0.218 5.195,0.441 0.965,0.219 1.356,0.441 1.743,0.441"
         id="path330"
         inkscape:connector-curvature="0" /></clipPath><clipPath
       clipPathUnits="userSpaceOnUse"
       id="clipPath340"><path
         d="m 773.008,194.723 -649.578,-3.715 -2.992,527.262 649.574,3.683 2.996,-527.23"
         id="path342"
         inkscape:connector-curvature="0" /></clipPath><clipPath
       clipPathUnits="userSpaceOnUse"
       id="clipPath346"><path
         d="m 239.762,191.672 0,0 c -0.77,2.293 -1.543,4.598 -2.324,6.91 -0.883,2.625 -1.778,5.258 -2.68,7.895 -6.063,17.75 -12.414,35.636 -18.543,51.656 -0.602,1.566 -1.199,3.117 -1.797,4.648 -0.988,2.555 -1.977,5.051 -2.953,7.489 -7.035,17.554 -13.621,31.839 -18.625,39.25 -3,4.472 -6.094,10.144 -9.231,16.687 -1.578,3.293 -3.171,6.805 -4.765,10.492 -1.875,4.332 -3.758,8.906 -5.641,13.66 -5.808,14.696 -11.566,31.051 -16.812,46.868 -0.731,2.191 -1.45,4.375 -2.157,6.539 -0.039,0.121 -0.078,0.242 -0.117,0.359 -11.664,35.789 -20.308,67.059 -20.316,67.09 l -1.063,3.848 3.981,0.304 c 0.043,0.004 19.644,1.5 45.371,3.625 25.719,2.125 57.519,4.871 81.781,7.36 16.145,1.648 29.074,3.218 34.234,4.324 l 0,0 c 16.141,3.422 157.418,28.359 241.567,40.652 28.098,4.098 49.594,6.789 58.586,6.809 1.441,-0.008 2.562,-0.055 3.644,-0.27 l -0.664,-3.219 0.664,3.219 1.614,-0.332 0.699,-1.492 c 0.008,-0.012 2.117,-4.512 5.664,-11.988 3.547,-7.477 8.519,-17.918 14.23,-29.762 6.508,-13.504 13.977,-28.832 21.371,-43.68 1.372,-2.754 2.743,-5.492 4.102,-8.195 4.176,-8.305 8.262,-16.313 12.078,-23.598 7.813,-14.941 14.582,-26.961 18.231,-31.832 0.121,-0.16 0.242,-0.328 0.371,-0.504 2.84,-3.898 7.343,-10.949 12.949,-20.086 2.754,-4.48 5.769,-9.464 8.984,-14.828 2.688,-4.484 5.508,-9.226 8.418,-14.144 2.657,-4.496 5.391,-9.141 8.164,-13.863 0,-0.004 0,-0.004 0,-0.004 0.133,-0.223 0.266,-0.45 0.399,-0.676 5.398,-9.207 10.937,-18.727 16.371,-28.094 6.922,-11.945 13.664,-23.644 19.695,-34.152 1.145,-1.989 2.262,-3.938 3.352,-5.832 5.707,-9.957 10.617,-18.551 14.211,-24.852 0.004,-0.004 0.004,-0.004 0.004,-0.004 l 0.093,-16.429 c -0.004,0 -0.004,0 -0.004,0 -4.793,-0.387 -14.058,-1.18 -26.644,-2.426 -18.887,-1.871 -45.195,-4.762 -74.852,-8.84 -3.422,-0.473 -6.886,-0.957 -10.386,-1.457 -14.289,-2.051 -29.211,-4.367 -44.348,-6.969 l -37.102,-0.215 c 83.223,16.746 169.68,24.539 191.375,26.336 -1.308,2.301 -3.086,5.418 -5.246,9.199 -4.863,8.528 -11.664,20.415 -19.402,33.872 -15.477,26.914 -34.715,60.105 -49.734,85.171 -9.996,16.684 -18.2,29.868 -21.938,34.868 -4.211,5.671 -10.871,17.621 -18.781,32.711 -7.887,15.058 -16.906,33.125 -25.434,50.527 -14.746,30.086 -28.015,58.187 -31.343,65.258 -0.211,0.004 -0.438,0.008 -0.68,0.008 -0.039,0 -0.082,0 -0.125,0 -0.024,0 -0.051,0 -0.074,0 -8.028,0 -29.739,-2.665 -57.563,-6.739 -27.969,-4.082 -62.34,-9.582 -96.312,-15.222 C 376.395,498.328 309.91,486.465 299.473,484.246 l 0,0 c -5.86,-1.238 -18.664,-2.762 -34.93,-4.433 -16.234,-1.665 -35.785,-3.442 -54.645,-5.071 -30.121,-2.601 -58.476,-4.828 -68.683,-5.621 0.555,-1.965 1.316,-4.633 2.258,-7.887 2.125,-7.355 5.168,-17.695 8.832,-29.597 7.324,-23.805 17.133,-53.879 27.011,-78.86 6.571,-16.636 13.227,-31.054 18.977,-39.589 6.328,-9.446 14.008,-26.864 22.25,-48.024 8.219,-21.129 16.895,-45.883 24.816,-69.512 0.442,-1.316 0.879,-2.632 1.317,-3.941 l -6.914,-0.039"
         id="path348"
         inkscape:connector-curvature="0" /></clipPath><clipPath
       clipPathUnits="userSpaceOnUse"
       id="clipPath358"><path
         d="m 773.008,194.723 -649.578,-3.715 -2.992,527.262 649.574,3.683 2.996,-527.23"
         id="path360"
         inkscape:connector-curvature="0" /></clipPath><clipPath
       clipPathUnits="userSpaceOnUse"
       id="clipPath364"><path
         d="m 277.223,357.414 c -0.66,0 -1.282,0.172 -1.828,0.559 -1.489,1.054 -1.95,1.382 -2.418,1.382 -0.387,0 -0.778,-0.222 -1.743,-0.441 -0.964,-0.223 -2.507,-0.441 -5.195,-0.441 -0.851,0 -1.816,0.019 -2.914,0.074 -12.266,0.57 -7.355,2.426 -10.437,4.851 -3.086,2.43 -3.086,2.43 -9.231,4.887 -6.129,2.43 -4.312,4.883 -6.152,9.172 -1.86,4.281 3.027,9.824 3.027,9.824 0,0 29.465,-7.258 34.375,-9.054 4.902,-1.86 6.758,-4.286 10.445,-6.114 3.68,-1.832 3.094,-6.742 3.094,-6.742 0,0 -6.512,-7.957 -11.023,-7.957"
         id="path366"
         inkscape:connector-curvature="0" /></clipPath><clipPath
       clipPathUnits="userSpaceOnUse"
       id="clipPath376"><path
         d="m 773.008,194.723 -649.578,-3.715 -2.992,527.262 649.574,3.683 2.996,-527.23"
         id="path378"
         inkscape:connector-curvature="0" /></clipPath></defs><sodipodi:namedview
     pagecolor="#ffffff"
     bordercolor="#666666"
     borderopacity="1"
     objecttolerance="10"
     gridtolerance="10"
     guidetolerance="10"
     inkscape:pageopacity="0"
     inkscape:pageshadow="2"
     inkscape:window-width="1920"
     inkscape:window-height="1125"
     id="namedview4"
     showgrid="false"
     inkscape:zoom="0.52493853"
     inkscape:cx="415.85379"
     inkscape:cy="498.78335"
     inkscape:window-x="0"
     inkscape:window-y="0"
     inkscape:window-maximized="1"
     inkscape:current-layer="g16"
     fit-margin-top="5"
     fit-margin-left="5"
     fit-margin-bottom="5"
     fit-margin-right="5" /><g
     transform="matrix(2.9750633,0,0,-2.9750633,505.14046,-2290.0588)"
     id="g16"
     style="stroke:#000000;stroke-width:0.33612731;stroke-miterlimit:4;stroke-dasharray:none;stroke-opacity:1"><g
       style="clip-rule:evenodd;fill-rule:evenodd;image-rendering:optimizeQuality;shape-rendering:geometricPrecision;text-rendering:geometricPrecision"
       id="g7841"
       transform="matrix(0.0255529,0,0,-0.0255529,-317.30988,-769.13645)"><metadata
         id="metadata7843" /><g
         id="g7845"><g
           id="g7847"><g
             id="g7849"><path
               id="path7851"
               d="m 16321,9474 c -237,-73 -507,-172 -794,-310 -235,-113 -442,-233 -620,-348 l -691,-3080 c -40,-197 -82,-395 -126,-595 -75,-342 -153,-678 -233,-1006 l -372,-1656 -14,-68 0,-246 158,-49 c -237,-552 -474,-1104 -711,-1656 -33,-50 -92,-128 -189,-197 -98,-69 -191,-99 -250,-113 L 7420,90 7260,103 c -2,2 -4,3 -6,5 l -416,64 c -266,296 -422,568 -514,764 -128,270 -215,559 -340,976 -23,75 -42,143 -58,199 -10,33 -18,63 -25,88 8,0 17,0 25,0 l 0,136 -70,0 61,847 226,1606 c 25,1061 16,3503 16,3503 l 91,1618 -45,5233 576,657 c 0,7 0,14 0,20 60,104 323,539 832,650 153,34 292,90 401,76 l 4454,-5869 c 1248,-106 2496,-212 3743,-318 11,0 63,2 106,-38 35,-32 43,-70 45,-83 0,-227 0,-454 0,-681 -13,-28 -25,-55 -38,-83 z"
               class="fil0"
               inkscape:connector-curvature="0"
               style="fill:#d2d1dc;fill-rule:nonzero" /></g></g><g
           id="g7853"><path
             id="path7855"
             d="m 8019,16552 7032,-737 196,-5374 c -924,78 -1847,157 -2771,235 l -4458,5875 z"
             class="fil1"
             inkscape:connector-curvature="0"
             style="fill:#eeedf4;fill-rule:nonzero" /></g></g><g
         id="g7857"><path
           id="path7859"
           d="m 5840,2335 560,0 c -20,219 -30,465 -23,734 7,261 30,499 61,711 95,421 183,854 265,1301 234,1284 376,2502 454,3638 29,120 78,268 166,424 37,65 76,123 113,174 449,217 897,434 1346,650 1169,-17 2378,-56 3622,-121 1361,-71 2675,-169 3940,-287 0,227 0,454 0,681 -2,13 -11,52 -45,83 -43,39 -95,38 -106,38 -1248,106 -2496,212 -3743,318 l -3638,121 -1172,-106 355,5853 c -109,15 -247,-42 -401,-76 -508,-112 -772,-546 -832,-650 13,-2077 25,-4154 38,-6232 l -900,-6405 -61,-847 z"
           class="fil2"
           inkscape:connector-curvature="0"
           style="fill:#bcbccc;fill-rule:nonzero" /></g><g
         id="g7861"><path
           id="path7863"
           d="m 6770,15807 c 12,-2057 25,-4114 37,-6170 L 6126,4788 c 25,1061 16,3503 16,3503 l 91,1618 -45,5233 583,665 z"
           class="fil3"
           inkscape:connector-curvature="0"
           style="fill:#adb0bb;fill-rule:nonzero" /></g><g
         id="g7865"><path
           id="path7867"
           d="m 6823,172 c -266,296 -422,568 -514,764 -128,270 -215,559 -340,976 -36,120 -64,220 -83,287 169,-3 338,-5 507,-8 5,-116 17,-290 53,-499 61,-361 141,-803 454,-1218 72,-96 188,-232 363,-371 l -439,68 z"
           class="fil4"
           inkscape:connector-curvature="0"
           style="fill:#b7b7cc;fill-rule:nonzero" /></g><g
         id="g7869"><path
           id="path7871"
           d="m 12903,460 c -33,-50 -92,-128 -189,-197 -98,-69 -191,-99 -250,-113 L 7405,90 7245,103 c -165,134 -276,264 -346,357 -313,414 -393,857 -454,1218 -35,209 -48,383 -53,499 l 476,8 6526,0 219,-68 c -237,-552 -474,-1104 -711,-1656 z"
           class="fil5"
           inkscape:connector-curvature="0"
           style="fill:#ecedf6;fill-rule:nonzero" /></g><g
         id="g7873"><path
           id="path7875"
           d="m 12462,10677 -3638,121 -733,-66 -99,5554 13,267 7032,-737 196,-5374 c -924,78 -1847,157 -2771,235 z"
           class="fil6"
           inkscape:connector-curvature="0"
           style="fill:#cbc9d4;fill-rule:nonzero" /></g><g
         id="g7877"><path
           id="path7879"
           d="m 8833,10449 -1,-1 -1928,-831 6,-14 1927,831 c 1129,-9 2273,-39 3401,-90 1364,-62 2746,-156 4106,-280 l 1,15 c -1360,124 -2742,218 -4107,280 -1129,51 -2274,81 -3403,90 l -2,0 z"
           class="fil7"
           inkscape:connector-curvature="0"
           style="fill:#282928;fill-rule:nonzero" /></g><g
         id="g7881"><path
           id="path7883"
           d="m 7261,316 c -115,178 -298,453 -355,832 -65,423 -74,812 -38,1036 2175,0 4351,0 6526,0 -242,-620 -307,-1083 -673,-1649 -49,-76 -100,-149 -151,-219 -1770,0 -3539,0 -5309,0 z"
           class="fil8"
           inkscape:connector-curvature="0"
           style="fill:#b0b8bf;fill-rule:nonzero" /></g><g
         id="g7885"><path
           id="path7887"
           d="m 13470,2479 1422,6337 c 178,115 385,235 620,348 287,138 557,238 794,310 13,28 25,55 38,83 -1274,128 -2606,231 -3993,303 -1232,63 -2423,97 -3569,106 -371,-267 -741,-534 -1112,-802 0,0 -1089,-6836 -1066,-6829 23,8 6836,0 6836,0 l 30,144 z"
           class="fil9"
           inkscape:connector-curvature="0"
           style="fill:#dbdcee;fill-rule:nonzero" /></g><g
         id="g7889"><path
           id="path7891"
           d="m 7050,2555 c 156,655 303,1334 439,2034 300,1550 509,3027 650,4416 925,-71 1871,-132 2836,-182 1272,-65 2513,-107 3721,-129 -145,-1110 -345,-2300 -620,-3554 -206,-938 -433,-1824 -673,-2654 -987,-58 -2035,-89 -3138,-83 -1082,6 -2109,47 -3078,113 l -136,38 z"
           class="fil10"
           inkscape:connector-curvature="0"
           style="fill:#2e2c31;fill-rule:nonzero" /></g><g
         id="g7893"><path
           id="path7895"
           d="m 8459,9401 630,475 c 644,5 1312,-2 2002,-25 549,-18 1084,-46 1603,-81 1089,-79 2178,-158 3267,-236 l -728,-419 c -400,47 -725,87 -945,116 -448,58 -719,97 -1124,131 -228,19 -415,30 -534,35 -63,1 -415,9 -479,10 -1090,23 -1365,30 -1820,35 -669,8 -906,3 -1003,0 -358,-9 -656,-26 -867,-41 z"
           class="fil7"
           inkscape:connector-curvature="0"
           style="fill:#282928;fill-rule:nonzero" /></g><g
         id="g7897"><path
           id="path7899"
           d="m 13984,9073 c 0,100 -81,182 -182,182 -100,0 -182,-81 -182,-182 0,-100 81,-182 182,-182 100,0 182,81 182,182 z"
           class="fil11"
           inkscape:connector-curvature="0"
           style="fill:#cb5d91;fill-rule:nonzero" /></g><g
         id="g7901"><polygon
           id="polygon7903"
           points="10067,9696 10067,9441 9974,9441 9974,9696 "
           class="fil12"
           style="fill:#dcc9cb;fill-rule:nonzero" /></g><g
         id="g7905"><polygon
           id="polygon7907"
           points="13850,9484 13850,9230 13756,9230 13756,9484 "
           class="fil12"
           style="fill:#dcc9cb;fill-rule:nonzero" /></g><g
         id="g7909"><path
           id="path7911"
           d="m 10232,9285 c 0,117 -95,212 -212,212 -117,0 -212,-95 -212,-212 0,-117 95,-212 212,-212 117,0 212,95 212,212 z"
           class="fil13"
           inkscape:connector-curvature="0"
           style="fill:#54b955;fill-rule:nonzero" /></g><g
         id="g7913"><g
           id="g7915"><g
             id="g7917"><g
               id="g7919"><path
                 id="path7921"
                 d="m 10967,9658 0,0 0,0 0,0 0,-55 0,0 0,0 0,0 0,0 0,0 0,55 c 0,0 0,0 0,0 z"
                 class="fil14"
                 inkscape:connector-curvature="0"
                 style="fill:#6c9560;fill-rule:nonzero" /></g><g
               id="g7923"><path
                 id="path7925"
                 d="m 10967,9603 0,55 0,0 0,0 0,0 0,0 0,0 0,0 0,0 0,0 0,0 0,-55 0,0 0,0 c 0,0 0,0 0,0 l 0,0 0,0 z"
                 class="fil15"
                 inkscape:connector-curvature="0"
                 style="fill:#69915e;fill-rule:nonzero" /></g><g
               id="g7927"><polygon
                 id="polygon7929"
                 points="10967,9604 10967,9604 10967,9604 10967,9658 10966,9659 10966,9659 10966,9659 10966,9659 10966,9659 10966,9659 10966,9659 10967,9604 "
                 class="fil16"
                 style="fill:#688d5b;fill-rule:nonzero" /></g><g
               id="g7931"><path
                 id="path7933"
                 d="m 10967,9604 0,55 0,0 0,0 0,0 0,0 0,0 0,0 0,0 0,0 0,0 0,0 -1,0 0,0 0,0 -1,0 0,0 -1,0 0,0 -1,0 0,0 -1,0 0,0 -1,0 0,0 -1,0 0,0 -1,0 0,0 -1,0 0,0 -1,0 0,0 0,0 -1,0 0,0 -1,0 0,0 -1,0 0,0 -1,0 0,0 -1,0 -1,0 -1,0 -1,0 -1,0 -1,0 -1,0 -1,0 -2,0 -1,0 -2,0 0,0 -2,0 0,0 -2,0 0,0 -2,0 0,0 -2,0 0,0 -2,0 0,0 -2,0 0,0 -2,0 -1,0 -2,0 -1,0 -2,0 -1,0 -2,0 -3,0 0,0 -1,0 -1,0 -1,0 -3,0 -1,0 -2,0 -1,0 -2,0 -1,0 -2,0 -1,0 -2,0 -1,0 -3,0 0,0 -3,0 0,0 -3,0 0,0 -3,0 0,0 -3,0 0,0 -3,0 -1,0 -3,0 -1,0 -3,0 -1,0 -2,0 -1,0 -2,0 -1,0 -2,0 -2,0 -2,0 -2,0 -2,0 -2,0 -1,0 -2,0 -1,0 -3,0 -1,0 -3,0 -1,0 -3,0 -1,0 -3,0 0,0 -3,0 0,0 -4,0 c -84,1 -153,-8 -153,-19 l 0,-55 c 0,11 69,20 153,19 l 4,0 0,0 3,0 0,0 3,0 1,0 3,0 1,0 3,0 1,0 3,0 1,0 2,0 1,0 2,0 2,0 2,0 2,0 2,0 2,0 1,0 2,0 1,0 2,0 1,0 3,0 1,0 3,0 1,0 3,0 0,0 3,0 0,0 3,0 0,0 3,0 0,0 3,0 0,0 3,0 1,0 2,0 1,0 2,0 1,0 2,0 1,0 2,0 1,0 0,0 3,0 1,0 1,0 1,0 2,0 1,0 2,0 1,0 2,0 1,0 2,0 1,0 2,0 0,0 2,0 0,0 2,0 0,0 2,0 0,0 2,0 0,0 2,0 0,0 2,0 0,0 2,0 1,0 2,0 1,0 0,0 2,0 0,0 1,0 1,0 1,0 0,0 1,0 0,0 1,0 1,0 0,0 1,0 0,0 1,0 0,0 1,0 0,0 1,0 0,0 0,0 1,0 1,0 0,0 1,0 0,0 1,0 0,0 1,0 0,0 1,0 1,0 1,0 0,0 1,0 0,0 0,0 0,0 0,0 0,0 0,0 0,0 0,0 0,0 0,0 0,0 0,0 z"
                 class="fil17"
                 inkscape:connector-curvature="0"
                 style="fill:#648758;fill-rule:nonzero" /></g></g><g
             id="g7935"><g
               id="g7937"><path
                 id="path7939"
                 d="m 10814,9583 c 84,-1 153,8 153,19 0,11 -68,21 -152,22 -84,1 -153,-8 -153,-19 0,-12 68,-21 152,-22 z"
                 class="fil18"
                 inkscape:connector-curvature="0"
                 style="fill:#90cb87;fill-rule:nonzero" /></g></g></g></g><g
         id="g7941"><g
           id="g7943"><g
             id="g7945"><g
               id="g7947"><path
                 id="path7949"
                 d="m 12355,9616 0,-55 0,0 0,0 0,0 0,0 0,0 0,55 m 0,1 0,0"
                 class="fil19"
                 inkscape:connector-curvature="0"
                 style="fill:none;fill-rule:nonzero" /></g><g
               id="g7951"><path
                 id="path7953"
                 d="m 12355,9561 0,55 c 0,0 0,0 0,1 l 0,0 0,0 0,-55 0,0 0,0 0,0 0,0 0,0 0,0 c 0,0 0,0 0,0 l 0,0 0,0 z"
                 class="fil20"
                 inkscape:connector-curvature="0"
                 style="fill:#8f8f48;fill-rule:nonzero" /></g><g
               id="g7955"><path
                 id="path7957"
                 d="m 12355,9562 0,55 0,0 0,0 0,0 0,0 0,-55 0,0 0,0 0,0 0,0 c 0,0 0,0 0,0 z"
                 class="fil21"
                 inkscape:connector-curvature="0"
                 style="fill:#8c8b49;fill-rule:nonzero" /></g><g
               id="g7959"><path
                 id="path7961"
                 d="m 12354,9563 0,55 0,0 0,0 0,0 0,0 0,0 0,0 0,0 0,0 -1,0 0,0 -1,0 0,0 -1,0 0,0 -1,0 0,0 0,0 -1,0 -1,0 -1,0 0,0 -1,0 0,0 -1,0 0,0 0,0 c -1,0 -2,1 -3,1 l 0,0 -1,0 -1,0 0,0 -1,0 0,0 -1,0 -1,0 0,0 c -1,0 -2,1 -3,1 l 0,0 -2,0 0,0 -1,0 -1,0 -2,0 0,0 0,0 -2,0 0,0 -2,0 0,0 -2,0 0,0 -2,0 0,0 -2,0 0,0 -2,0 0,0 -2,0 0,0 -2,0 -1,0 -2,0 -1,0 -2,0 -1,0 -2,0 -1,0 -2,0 -1,0 -1,0 -1,0 -1,0 -2,0 -1,0 -2,0 -1,0 -2,0 -1,0 -2,0 -1,0 -3,0 -1,0 -3,0 0,0 -3,0 0,0 -3,0 -3,0 0,0 -3,0 0,0 -3,0 -1,0 -3,0 -1,0 -3,0 -1,0 -2,0 -1,0 -2,0 -1,0 -2,0 -2,0 -2,0 -2,0 -2,0 -2,0 -1,0 -2,0 -1,0 -3,0 -1,0 -3,0 -1,0 -3,0 -1,0 -3,0 0,0 -3,0 0,0 -4,0 c -84,1 -153,-8 -153,-19 l 0,-55 c 0,11 69,20 153,19 l 4,0 0,0 3,0 0,0 3,0 1,0 3,0 1,0 3,0 1,0 3,0 1,0 2,0 1,0 2,0 2,0 2,0 2,0 2,0 2,0 1,0 2,0 1,0 2,0 1,0 3,0 1,0 3,0 1,0 3,0 0,0 3,0 0,0 3,0 0,0 3,0 0,0 3,0 0,0 3,0 1,0 3,0 1,0 2,0 1,0 2,0 1,0 2,0 1,0 2,0 1,0 1,0 0,0 3,0 0,0 2,0 1,0 2,0 1,0 1,0 2,0 2,0 1,0 2,0 0,0 2,0 0,0 2,0 0,0 2,0 2,0 0,0 2,0 0,0 2,0 0,0 2,0 0,0 2,0 1,0 1,0 0,0 2,0 0,0 1,0 0,0 1,0 1,0 1,0 0,0 1,0 0,0 1,0 0,0 1,0 1,0 0,0 1,0 0,0 1,0 0,0 1,0 0,0 c 1,0 2,-1 2,-1 l 1,0 0,0 1,0 c 1,0 1,-1 2,-1 l 0,0 1,0 0,0 0,0 0,0 0,0 0,0 0,0 0,0 0,0 0,0 0,0 0,0 z"
                 class="fil22"
                 inkscape:connector-curvature="0"
                 style="fill:#868648;fill-rule:nonzero" /></g></g><g
             id="g7963"><g
               id="g7965"><path
                 id="path7967"
                 d="m 12202,9542 c 84,-1 153,8 153,19 0,11 -68,21 -152,22 -84,1 -153,-8 -153,-19 0,-12 68,-21 152,-22 z"
                 class="fil23"
                 inkscape:connector-curvature="0"
                 style="fill:#d4d44b;fill-rule:nonzero" /></g></g></g></g><g
         id="g7969"><g
           id="g7971"><g
             id="g7973"><g
               id="g7975"><path
                 id="path7977"
                 d="m 12755,9580 0,0 0,0 0,0 0,-55 0,0 0,0 0,0 0,0 0,0 0,54 c 0,0 0,0 0,0 z"
                 class="fil24"
                 inkscape:connector-curvature="0"
                 style="fill:#939348;fill-rule:nonzero" /></g><g
               id="g7979"><path
                 id="path7981"
                 d="m 12756,9525 0,55 0,0 0,0 m 0,0 0,0 0,0 0,-55 0,0 0,0 c 0,0 0,0 0,-1"
                 class="fil19"
                 inkscape:connector-curvature="0"
                 style="fill:none;fill-rule:nonzero" /></g><g
               id="g7983"><path
                 id="path7985"
                 d="m 12756,9526 0,55 c 0,0 0,0 0,0 l 0,0 0,0 0,0 0,0 0,-55 0,0 0,0 0,0 0,0 z"
                 class="fil21"
                 inkscape:connector-curvature="0"
                 style="fill:#8c8b49;fill-rule:nonzero" /></g><g
               id="g7987"><path
                 id="path7989"
                 d="m 12755,9527 0,55 0,0 0,0 0,0 0,0 0,0 0,0 0,0 0,0 0,0 0,0 0,0 -1,0 0,0 -1,0 0,0 -1,0 -1,0 0,0 -1,0 -1,0 0,0 -1,0 0,0 -1,0 0,0 -1,0 0,0 -1,0 0,0 -1,0 -1,0 0,0 -1,0 0,0 -1,0 0,0 -1,0 -1,0 -1,0 0,0 -1,0 0,0 -2,0 0,0 -1,0 -1,0 -2,0 0,0 -2,0 0,0 -2,0 0,0 -2,0 0,0 -2,0 -2,0 0,0 -2,0 0,0 -2,0 0,0 -2,0 -1,0 -2,0 -1,0 -2,0 -1,0 -2,0 -1,0 -2,0 -1,0 0,0 -3,0 -1,0 -2,0 -1,0 -2,0 -3,0 -1,0 -2,0 -1,0 -3,0 -1,0 -3,0 0,0 -3,0 0,0 -3,0 -3,0 0,0 -3,0 0,0 -3,0 -1,0 -3,0 -1,0 -3,0 -1,0 -2,0 -1,0 -2,0 -1,0 -2,0 -2,0 -2,0 -2,0 -2,0 -2,0 -1,0 -2,0 -1,0 -3,0 -1,0 -3,0 -1,0 -3,0 -1,0 -3,0 0,0 -3,0 0,0 -4,0 c -84,1 -153,-8 -153,-19 l 0,-55 c 0,11 69,20 153,19 l 4,0 0,0 3,0 0,0 3,0 1,0 3,0 1,0 3,0 1,0 3,0 1,0 2,0 1,0 2,0 2,0 2,0 2,0 2,0 2,0 1,0 2,0 1,0 2,0 1,0 3,0 1,0 3,0 1,0 3,0 0,0 3,0 0,0 3,0 3,0 0,0 3,0 0,0 3,0 1,0 3,0 1,0 2,0 1,0 2,0 1,0 2,0 1,0 2,0 1,0 1,0 1,0 0,0 2,0 1,0 2,0 1,0 2,0 1,0 2,0 1,0 2,0 0,0 2,0 0,0 2,0 0,0 2,0 2,0 0,0 2,0 0,0 2,0 2,0 0,0 2,0 1,0 1,0 1,0 0,0 2,0 0,0 1,0 1,0 0,0 1,0 0,0 1,0 0,0 1,0 0,0 1,0 0,0 1,0 0,0 1,0 0,0 0,0 1,0 0,0 1,0 0,0 1,0 0,0 1,0 1,0 0,0 1,0 1,0 0,0 0,0 1,0 0,0 0,0 0,0 0,0 0,0 0,0 0,0 0,0 0,0 0,0 0,0 0,0 0,0 z"
                 class="fil22"
                 inkscape:connector-curvature="0"
                 style="fill:#868648;fill-rule:nonzero" /></g></g><g
             id="g7991"><g
               id="g7993"><path
                 id="path7995"
                 d="m 12603,9506 c 84,-1 153,8 153,19 0,11 -68,21 -152,22 -84,1 -153,-8 -153,-19 0,-12 68,-21 152,-22 z"
                 class="fil23"
                 inkscape:connector-curvature="0"
                 style="fill:#d4d44b;fill-rule:nonzero" /></g></g></g></g><g
         id="g7997"><g
           id="g7999"><g
             id="g8001"><g
               id="g8003"><path
                 id="path8005"
                 d="m 14637,9436 0,0 0,0 0,0 0,0 0,0 0,0 0,-72 0,-1 0,0 0,0 0,0 0,0 0,0 0,0 0,72 c 0,0 0,1 0,1 z"
                 class="fil25"
                 inkscape:connector-curvature="0"
                 style="fill:#926683;fill-rule:nonzero" /></g><g
               id="g8007"><path
                 id="path8009"
                 d="m 14638,9364 0,72 0,0 0,0 0,0 0,0 0,0 0,0 0,1 0,0 0,0 0,0 0,0 0,0 0,-72 0,0 0,0 0,0 0,0 0,0 0,0 c 0,0 0,-1 0,-1 l 0,0 0,0 0,0 z"
                 class="fil26"
                 inkscape:connector-curvature="0"
                 style="fill:#8e637f;fill-rule:nonzero" /></g><g
               id="g8011"><path
                 id="path8013"
                 d="m 14637,9366 0,72 0,0 0,0 0,0 0,0 0,0 0,0 0,0 0,0 0,0 0,0 0,0 0,1 0,0 0,0 0,0 0,0 0,0 0,0 0,0 0,1 0,0 0,0 0,0 0,0 0,0 0,-72 0,0 0,0 0,0 0,0 0,0 0,0 0,-1 0,0 0,0 0,0 0,0 0,0 c 0,0 0,-1 0,-1 l 0,0 0,0 0,0 0,0 0,0 0,0 z"
                 class="fil27"
                 inkscape:connector-curvature="0"
                 style="fill:#8b617c;fill-rule:nonzero" /></g><g
               id="g8015"><path
                 id="path8017"
                 d="m 14636,9368 0,72 c 0,0 0,1 -1,1 l 0,0 -1,1 0,0 0,1 0,0 0,0 0,0 0,0 -1,1 0,0 -1,0 -1,0 0,0 -1,0 0,0 -1,0 0,0 -1,1 0,0 -1,1 0,0 -1,1 0,0 -1,1 0,0 -1,1 0,0 -1,0 -1,0 -1,0 -1,0 -1,0 -1,0 -1,0 -1,1 0,0 -1,0 -2,1 0,0 -2,1 0,0 -2,1 0,0 -2,1 0,0 -2,1 0,0 -2,0 -1,0 -1,0 -1,0 -1,0 0,0 -2,0 -1,0 -2,1 -2,1 0,0 -1,0 -2,0 0,0 -2,1 0,0 -3,1 0,0 -2,0 0,0 -2,0 -1,0 -2,0 -1,0 -2,0 -1,0 -1,0 -2,0 0,0 -3,0 0,0 -1,0 -2,0 -1,0 -3,0 0,0 -3,0 0,0 -3,0 0,0 -3,0 -1,0 -2,0 -1,0 -2,0 -1,0 -2,0 -2,0 -1,0 -2,0 -1,0 -2,0 -1,0 -3,0 0,0 -3,0 0,0 -3,0 0,0 -3,0 -1,0 -3,0 -1,0 -2,0 -1,0 0,0 -3,0 -1,0 -2,0 -2,0 -1,0 -2,0 -1,0 -3,0 -1,0 -3,0 0,0 -4,0 c -84,1 -153,-15 -153,-35 l 0,-72 c 0,20 69,36 153,35 l 4,0 0,0 3,0 1,0 3,0 1,0 2,0 1,0 3,0 2,0 1,0 3,0 0,0 1,0 2,0 1,0 3,0 1,0 3,0 0,0 3,0 0,0 3,0 0,0 3,0 1,0 2,0 1,0 2,0 1,0 2,0 2,0 1,0 2,0 1,0 2,0 1,0 3,0 0,0 3,0 0,0 3,0 0,0 3,0 1,0 2,0 1,0 2,0 1,0 2,0 1,0 1,0 2,0 1,0 2,0 1,0 2,0 0,0 2,0 0,0 3,-1 0,0 2,-1 0,0 2,0 1,0 2,0 1,0 2,0 1,0 1,0 1,0 1,0 1,0 1,0 2,0 1,0 2,-1 0,0 2,-1 0,0 2,-1 0,0 2,-1 0,0 1,0 1,0 1,0 1,0 1,0 1,0 0,0 1,-1 0,0 1,0 1,0 1,0 0,0 1,-1 0,0 1,-1 0,0 1,-1 0,0 1,-1 1,-1 0,0 1,0 1,0 1,0 1,0 0,0 0,0 0,0 1,0 0,0 0,0 0,0 0,0 0,-1 0,0 1,-1 0,0 1,-1 z"
                 class="fil28"
                 inkscape:connector-curvature="0"
                 style="fill:#865f79;fill-rule:nonzero" /></g></g><g
             id="g8019"><g
               id="g8021"><path
                 id="path8023"
                 d="m 14485,9328 c 84,-1 153,15 153,35 0,20 -68,37 -152,38 -84,1 -153,-15 -153,-35 0,-20 68,-37 152,-38 z"
                 class="fil29"
                 inkscape:connector-curvature="0"
                 style="fill:#d489b6;fill-rule:nonzero" /></g></g></g></g><g
         id="g8025"><g
           id="g8027"><g
             id="g8029"><g
               id="g8031"><path
                 id="path8033"
                 d="m 14942,9357 0,0 0,0 0,0 0,0 0,0 0,0 0,-72 0,-1 0,0 0,0 0,0 0,0 0,0 0,0 0,72 c 0,0 0,1 0,1 z"
                 class="fil25"
                 inkscape:connector-curvature="0"
                 style="fill:#926683;fill-rule:nonzero" /></g><g
               id="g8035"><path
                 id="path8037"
                 d="m 14943,9286 0,72 0,0 0,0 0,0 c 0,0 0,1 0,1 l 0,0 0,0 0,0 0,0 0,-72 0,-1 0,0 0,0 0,0 0,0 c 0,0 0,-1 0,-1 l 0,0 0,0 0,0 z"
                 class="fil26"
                 inkscape:connector-curvature="0"
                 style="fill:#8e637f;fill-rule:nonzero" /></g><g
               id="g8039"><polygon
                 id="polygon8041"
                 points="14941,9361 14941,9361 14941,9361 14941,9361 14941,9361 14941,9361 14941,9361 14941,9362 14941,9362 14941,9362 14941,9362 14941,9362 14941,9362 14941,9290 14941,9290 14941,9290 14941,9290 14941,9289 14941,9289 14942,9289 14942,9289 14942,9289 14942,9289 14942,9289 14942,9289 14942,9289 14942,9289 14942,9288 14942,9288 14942,9288 14942,9288 14942,9288 14942,9288 14942,9288 14942,9288 14942,9288 14942,9288 14942,9288 14942,9287 14942,9360 14942,9360 14942,9360 14942,9360 14942,9360 14942,9360 14942,9360 14942,9360 14941,9361 "
                 class="fil27"
                 style="fill:#8b617c;fill-rule:nonzero" /></g><g
               id="g8043"><path
                 id="path8045"
                 d="m 14941,9290 0,72 c 0,0 0,1 -1,1 l 0,0 -1,1 0,0 0,1 0,0 0,1 0,0 -1,1 0,0 -1,0 0,0 -1,1 0,0 -1,1 0,0 -1,1 0,0 -1,1 0,0 -1,1 0,0 -1,1 0,0 -1,1 0,0 -1,1 0,0 -1,0 -1,0 -1,0 -1,0 -1,1 0,0 -1,1 0,0 -1,0 -1,0 -2,1 0,0 -2,1 0,0 -2,1 0,0 -2,1 0,0 -2,1 -2,1 0,0 -1,0 -1,0 -1,0 -1,0 -1,0 -1,0 -2,0 0,0 -2,0 -1,0 -1,0 -2,0 0,0 -2,1 0,0 -3,1 0,0 -2,0 0,0 -2,0 -1,0 -2,0 -1,0 -2,0 -1,0 -1,0 -2,0 0,0 -3,0 0,0 -1,0 -2,0 -1,0 -3,0 0,0 -3,0 0,0 -3,0 0,0 -3,0 -1,0 -2,0 -1,0 -2,0 -1,0 -2,0 -2,0 -1,0 -2,0 -1,0 -2,0 -1,0 -3,0 0,0 -3,0 0,0 -3,0 0,0 -3,0 -1,0 -3,0 -1,0 -2,0 -1,0 0,0 -3,0 -1,0 -2,0 -2,0 -1,0 -2,0 -1,0 -3,0 -1,0 -3,0 0,0 -4,0 c -84,1 -153,-15 -153,-35 l 0,-72 c 0,20 69,36 153,35 l 4,0 0,0 3,0 1,0 3,0 1,0 2,0 1,0 2,0 2,0 1,0 3,0 0,0 1,0 2,0 1,0 3,0 1,0 3,0 0,0 3,0 0,0 3,0 0,0 3,0 1,0 2,0 1,0 2,0 1,0 2,0 2,0 1,0 2,0 1,0 2,0 1,0 3,0 0,0 3,0 0,0 3,0 0,0 3,0 1,0 2,0 1,0 0,0 c 2,0 4,-1 6,-1 l 0,0 1,0 2,0 1,0 2,0 1,0 2,0 0,0 2,0 0,0 3,-1 0,0 2,-1 0,0 2,0 1,0 1,0 2,0 0,0 2,0 1,0 1,0 1,0 1,0 1,0 1,0 0,0 2,0 2,-1 0,0 2,-1 0,0 2,-1 0,0 2,-1 2,-1 1,0 0,0 1,0 1,0 1,0 1,0 1,-1 0,0 1,-1 1,0 1,-1 0,0 0,0 1,-1 0,0 1,-1 0,0 1,-1 0,0 1,-1 0,0 1,0 1,0 1,0 0,0 1,0 0,0 1,0 0,0 1,-1 0,0 0,-1 0,0 0,-1 0,0 1,-1 0,0 1,-1 z"
                 class="fil28"
                 inkscape:connector-curvature="0"
                 style="fill:#865f79;fill-rule:nonzero" /></g></g><g
             id="g8047"><g
               id="g8049"><path
                 id="path8051"
                 d="m 14790,9249 c 84,-1 153,15 153,35 0,20 -68,37 -152,38 -84,1 -153,-15 -153,-35 0,-20 68,-37 152,-38 z"
                 class="fil29"
                 inkscape:connector-curvature="0"
                 style="fill:#d489b6;fill-rule:nonzero" /></g></g></g></g><g
         id="g8053"><g
           id="g8055"><g
             id="g8057"><g
               id="g8059"><path
                 id="path8061"
                 d="m 15272,9357 0,0 0,0 0,0 0,0 0,1 0,-72 0,-1 0,0 0,0 0,0 0,0 0,0 0,0 0,72 c 0,0 0,1 0,1 z"
                 class="fil25"
                 inkscape:connector-curvature="0"
                 style="fill:#926683;fill-rule:nonzero" /></g><g
               id="g8063"><path
                 id="path8065"
                 d="m 15272,9286 0,72 0,0 0,0 0,0 c 0,0 0,1 0,1 l 0,0 0,0 0,0 0,0 0,-72 0,-1 0,0 0,0 0,0 c 0,0 0,-1 0,-1 l 0,0 0,0 0,0 z"
                 class="fil26"
                 inkscape:connector-curvature="0"
                 style="fill:#8e637f;fill-rule:nonzero" /></g><g
               id="g8067"><path
                 id="path8069"
                 d="m 15272,9287 0,72 0,0 0,0 0,0 0,0 0,0 0,0 0,0 0,1 0,0 0,0 0,0 0,0 0,0 0,0 0,0 0,1 0,0 0,0 0,0 0,-72 0,0 0,0 0,0 0,-1 0,0 0,0 c 0,0 0,-1 0,-1 l 0,0 0,0 0,0 0,0 z"
                 class="fil27"
                 inkscape:connector-curvature="0"
                 style="fill:#8b617c;fill-rule:nonzero" /></g><g
               id="g8071"><path
                 id="path8073"
                 d="m 15271,9290 0,72 0,0 c 0,0 0,1 -1,1 l 0,0 0,0 -1,1 0,0 -1,1 0,0 -1,1 0,0 -1,0 0,0 0,0 -1,0 0,0 -1,0 -1,0 0,0 -1,1 0,0 0,0 -1,1 0,0 -1,1 0,0 0,0 -1,1 0,0 -1,1 -1,0 -1,1 0,0 -1,1 -1,0 -1,0 -1,0 -1,0 0,0 -1,0 -2,1 c -1,0 -3,1 -4,1 l 0,0 -2,1 0,0 -2,1 0,0 -2,0 -1,0 -1,0 -1,0 -1,0 -1,0 -1,0 -1,0 -2,0 0,0 -2,0 -1,0 -1,0 -2,0 0,0 -2,1 0,0 -3,1 0,0 -2,0 0,0 -2,0 -1,0 -2,0 -1,0 -2,0 -1,0 0,0 c -2,0 -4,1 -6,1 l 0,0 -1,0 -2,0 -1,0 -3,0 0,0 -3,0 0,0 -3,0 0,0 -3,0 -1,0 -2,0 -1,0 -2,0 -1,0 -2,0 -2,0 -1,0 -2,0 -1,0 -2,0 -1,0 -3,0 0,0 -3,0 0,0 -3,0 0,0 -3,0 -1,0 -3,0 -1,0 -2,0 -1,0 0,0 -3,0 -1,0 -2,0 -2,0 -1,0 -2,0 -1,0 -3,0 -1,0 -3,0 0,0 -4,0 c -84,1 -153,-15 -153,-35 l 0,-72 c 0,20 69,36 153,35 l 4,0 0,0 3,0 1,0 3,0 1,0 2,0 1,0 2,0 2,0 1,0 3,0 0,0 1,0 2,0 1,0 3,0 1,0 3,0 0,0 3,0 0,0 3,0 0,0 3,0 1,0 2,0 1,0 2,0 1,0 2,0 2,0 1,0 2,0 1,0 2,0 1,0 3,0 0,0 3,0 0,0 3,0 0,0 3,0 1,0 2,0 1,0 0,0 c 2,0 4,-1 6,-1 l 0,0 1,0 2,0 1,0 2,0 1,0 2,0 0,0 2,0 0,0 3,-1 0,0 2,-1 0,0 2,0 1,0 1,0 2,0 0,0 2,0 1,0 1,0 1,0 1,0 1,0 1,0 1,0 2,0 0,0 2,-1 0,0 2,-1 0,0 c 1,0 3,-1 4,-1 l 2,-1 1,0 0,0 1,0 1,0 1,0 1,0 1,-1 0,0 1,-1 1,0 1,-1 0,0 1,-1 0,0 0,0 1,-1 0,0 1,-1 0,0 0,0 1,-1 0,0 1,0 1,0 0,0 1,0 0,0 0,0 1,0 0,0 1,-1 0,0 1,-1 0,0 1,-1 0,0 0,0 c 0,0 0,-1 1,-1 z"
                 class="fil28"
                 inkscape:connector-curvature="0"
                 style="fill:#865f79;fill-rule:nonzero" /></g></g><g
             id="g8075"><g
               id="g8077"><path
                 id="path8079"
                 d="m 15119,9249 c 84,-1 153,15 153,35 0,20 -68,37 -152,38 -84,1 -153,-15 -153,-35 0,-20 68,-37 152,-38 z"
                 class="fil29"
                 inkscape:connector-curvature="0"
                 style="fill:#d489b6;fill-rule:nonzero" /></g></g></g></g><g
         id="g8081"><g
           id="g8083"><g
             id="g8085"><g
               id="g8087"><path
                 id="path8089"
                 d="m 11259,9595 0,-55 0,0 0,0 0,0 0,0 0,0 0,55 m 0,1 0,0"
                 class="fil19"
                 inkscape:connector-curvature="0"
                 style="fill:none;fill-rule:nonzero" /></g><g
               id="g8091"><path
                 id="path8093"
                 d="m 11260,9541 0,55 c 0,0 0,0 0,1 l 0,-55 0,0 0,0 0,0 0,0 0,0 0,0 c 0,0 0,0 0,0 l 0,0 0,0 z"
                 class="fil15"
                 inkscape:connector-curvature="0"
                 style="fill:#69915e;fill-rule:nonzero" /></g><g
               id="g8095"><path
                 id="path8097"
                 d="m 11259,9541 0,55 c 0,0 0,0 0,1 l 0,-55 0,0 0,0 0,0 0,0 0,0 0,0 0,0 z"
                 class="fil16"
                 inkscape:connector-curvature="0"
                 style="fill:#688d5b;fill-rule:nonzero" /></g><g
               id="g8099"><path
                 id="path8101"
                 d="m 11259,9542 0,55 0,0 0,0 0,0 0,0 0,0 0,0 0,0 0,0 -1,0 0,0 c 0,0 -1,1 -2,1 l 0,0 -1,0 0,0 m -2,1 0,0 -1,0 0,0 c -3,1 -7,2 -11,3 l 0,0 c -1,0 -2,1 -4,1 l 0,0 c -2,0 -4,1 -6,1 l -1,0 -2,0 -4,1 -1,0 0,0 -2,0 0,0 c -2,0 -5,1 -8,1 l -2,0 -1,0 -2,0 -1,0 -1,0 -2,0 -2,0 -1,0 -2,0 -1,0 -1,0 -1,0 -3,0 -1,0 -2,0 -1,0 -2,0 -1,0 -2,0 -1,0 -2,0 -1,0 -3,0 0,0 -3,0 0,0 -3,0 0,0 -3,0 0,0 -3,0 0,0 -3,0 -1,0 -3,0 -1,0 -3,0 -1,0 -2,0 -1,0 -2,0 -1,0 -2,0 -2,0 -2,0 -2,0 -2,0 -2,0 -1,0 -2,0 -1,0 -3,0 -1,0 -3,0 -1,0 -3,0 -1,0 -3,0 0,0 -3,0 0,0 -4,0 c -84,1 -153,-8 -153,-19 l 0,-55 c 0,11 69,20 153,19 l 4,0 0,0 3,0 4,0 1,0 3,0 1,0 3,0 1,0 3,0 1,0 2,0 1,0 2,0 4,0 2,0 2,0 2,0 1,0 2,0 1,0 2,0 1,0 3,0 1,0 3,0 1,0 3,0 0,0 3,0 0,0 3,0 0,0 3,0 0,0 3,0 0,0 3,0 1,0 2,0 1,0 2,0 1,0 2,0 1,0 2,0 1,0 2,0 1,0 1,0 3,0 2,0 1,0 2,0 1,0 2,0 3,0 0,0 1,0 2,0 0,0 2,0 0,0 2,0 0,0 2,0 0,0 2,0 0,0 2,0 0,0 2,0 0,0 2,0 1,0 2,0 1,0 1,0 1,0 1,0 1,0 1,0 1,0 1,0 1,0 0,0 1,0 0,0 1,0 0,0 1,0 0,0 0,0 1,0 1,0 0,0 0,0 1,0 0,0 1,0 0,0 1,0 0,0 1,0 0,0 1,0 0,0 1,0 0,0 1,0 0,0 0,0 1,0 0,0 0,0 0,0 0,0 0,0 0,0 0,0 0,0 0,0 0,0"
                 class="fil19"
                 inkscape:connector-curvature="0"
                 style="fill:none;fill-rule:nonzero" /></g></g><g
             id="g8103"><g
               id="g8105"><path
                 id="path8107"
                 d="m 11107,9521 c 84,-1 153,8 153,19 0,11 -68,21 -152,22 -84,1 -153,-8 -153,-19 0,-12 68,-21 152,-22 z"
                 class="fil18"
                 inkscape:connector-curvature="0"
                 style="fill:#90cb87;fill-rule:nonzero" /></g></g></g></g><g
         id="g8109"><g
           id="g8111"><g
             id="g8113"><g
               id="g8115"><path
                 id="path8117"
                 d="m 11650,9595 0,-55 0,0 0,0 0,0 0,0 0,0 0,55 m 0,1 0,0"
                 class="fil19"
                 inkscape:connector-curvature="0"
                 style="fill:none;fill-rule:nonzero" /></g><g
               id="g8119"><path
                 id="path8121"
                 d="m 11650,9541 0,55 c 0,0 0,0 0,1 l 0,-55 0,0 0,0 0,0 0,0 0,0 0,0 c 0,0 0,0 0,0 z"
                 class="fil15"
                 inkscape:connector-curvature="0"
                 style="fill:#69915e;fill-rule:nonzero" /></g><g
               id="g8123"><path
                 id="path8125"
                 d="m 11650,9541 0,55 c 0,0 0,0 0,1 l 0,-55 0,0 0,0 c 0,0 0,0 0,0 z"
                 class="fil16"
                 inkscape:connector-curvature="0"
                 style="fill:#688d5b;fill-rule:nonzero" /></g><g
               id="g8127"><path
                 id="path8129"
                 d="m 11650,9542 0,55 0,0 0,0 0,0 0,0 0,0 0,0 0,0 0,0 -1,0 0,0 c 0,0 -1,1 -2,1 l 0,0 -1,0 0,0 m -2,1 0,0 -1,0 0,0 -1,0 0,0 c -3,1 -6,2 -10,3 l 0,0 c -1,0 -2,1 -4,1 l 0,0 c -2,0 -4,1 -6,1 l -1,0 -2,0 0,0 -2,0 0,0 -2,0 0,0 -2,0 0,0 c -2,0 -5,1 -8,1 l -2,0 -1,0 -2,0 -1,0 -1,0 -2,0 -2,0 -1,0 -2,0 -1,0 -1,0 -1,0 -3,0 0,0 -1,0 -2,0 -1,0 -2,0 -1,0 -2,0 -1,0 -2,0 -1,0 -3,0 0,0 -3,0 0,0 -3,0 0,0 -3,0 0,0 -3,0 0,0 -3,0 -1,0 -3,0 -1,0 -3,0 -1,0 -2,0 -1,0 -2,0 -1,0 -2,0 -2,0 -2,0 -2,0 -2,0 -2,0 -1,0 -2,0 -1,0 -3,0 -1,0 -3,0 -1,0 -3,0 -1,0 -3,0 0,0 -3,0 0,0 -4,0 c -84,1 -153,-8 -153,-19 l 0,-55 c 0,11 69,20 153,19 l 4,0 0,0 3,0 4,0 1,0 3,0 1,0 3,0 1,0 3,0 1,0 2,0 1,0 2,0 3,0 0,0 2,0 2,0 2,0 1,0 2,0 1,0 2,0 1,0 3,0 1,0 3,0 1,0 3,0 0,0 3,0 0,0 3,0 0,0 3,0 0,0 3,0 0,0 3,0 1,0 2,0 1,0 2,0 1,0 2,0 1,0 2,0 1,0 2,0 1,0 1,0 3,0 2,0 1,0 2,0 1,0 2,0 1,0 2,0 1,0 2,0 0,0 2,0 0,0 2,0 0,0 2,0 0,0 2,0 0,0 2,0 0,0 2,0 0,0 2,0 1,0 2,0 1,0 1,0 1,0 1,0 1,0 1,0 1,0 1,0 1,0 0,0 1,0 0,0 1,0 0,0 1,0 0,0 0,0 1,0 1,0 0,0 0,0 1,0 0,0 1,0 0,0 1,0 0,0 1,0 0,0 1,0 0,0 1,0 0,0 1,0 0,0 0,0 1,0 0,0 0,0 0,0 0,0 0,0 0,0 0,0 0,0 0,0 0,0"
                 class="fil19"
                 inkscape:connector-curvature="0"
                 style="fill:none;fill-rule:nonzero" /></g></g><g
             id="g8131"><g
               id="g8133"><path
                 id="path8135"
                 d="m 11498,9521 c 84,-1 153,8 153,19 0,11 -68,21 -152,22 -84,1 -153,-8 -153,-19 0,-12 68,-21 152,-22 z"
                 class="fil18"
                 inkscape:connector-curvature="0"
                 style="fill:#90cb87;fill-rule:nonzero" /></g></g></g></g><g
         id="g8137"><path
           id="path8139"
           d="m 7854,3700 c 1021,-99 1849,-144 2405,-167 1420,-58 3048,-53 3055,-53 l 908,4137 c -984,-1 -2017,25 -3093,84 -907,50 -1780,120 -2617,205 C 8438,7249 8348,6569 8240,5868 8123,5115 7993,4392 7854,3701 Z"
           class="fil30"
           inkscape:connector-curvature="0"
           style="fill:#44424c;fill-rule:nonzero" /></g><g
         id="g8141"><path
           id="path8143"
           d="m 7753,3689 c 1021,-99 1849,-144 2405,-166 1420,-58 3047,-53 3055,-53 l 908,4114 c -984,-1 -2017,24 -3093,83 -907,49 -1780,119 -2617,204 C 8337,7218 8247,6542 8139,5844 8022,5095 7892,4376 7753,3689 Z"
           class="fil31"
           inkscape:connector-curvature="0"
           style="fill:#5c596e;fill-rule:nonzero" /><path
           id="path8145"
           d="m 13674,5670 c 0,751 -303,1432 -793,1926 -602,13 -1220,36 -1853,70 -621,34 -1227,77 -1815,129 -73,-60 -144,-123 -211,-190 -495,-495 -802,-1179 -802,-1935 0,-756 306,-1440 802,-1935 56,-56 115,-110 176,-161 384,-25 714,-41 981,-52 863,-35 1803,-47 2409,-51 108,80 210,169 305,264 254,254 459,558 597,896 l 201,913 c 2,42 3,84 3,126 z"
           class="fil31"
           inkscape:connector-curvature="0"
           style="fill:#5c596e;fill-rule:nonzero" /><path
           id="path8147"
           d="m 13582,5670 c 0,731 -296,1392 -775,1871 -20,20 -40,39 -60,59 -560,13 -1133,35 -1720,67 -575,31 -1135,71 -1682,117 -99,-74 -192,-156 -279,-243 -479,-479 -775,-1140 -775,-1871 0,-731 296,-1392 775,-1871 84,-84 174,-163 269,-235 317,-19 593,-32 822,-42 792,-32 1648,-45 2252,-50 l 6,4 c 141,95 272,203 392,323 479,479 775,1140 775,1871 z"
           class="fil32"
           inkscape:connector-curvature="0"
           style="fill:#5d5a6e;fill-rule:nonzero" /><path
           id="path8149"
           d="m 13491,5670 c 0,705 -286,1344 -748,1806 -44,44 -89,86 -136,127 -515,14 -1042,34 -1579,64 -526,29 -1040,64 -1542,105 -127,-88 -246,-187 -355,-296 -462,-462 -748,-1101 -748,-1806 0,-705 286,-1344 748,-1806 115,-115 240,-218 375,-310 246,-14 465,-24 652,-32 721,-29 1495,-43 2084,-48 42,25 83,51 123,78 136,92 262,196 378,312 462,462 748,1101 748,1806 z"
           class="fil33"
           inkscape:connector-curvature="0"
           style="fill:#5d5b6e;fill-rule:nonzero" /><path
           id="path8151"
           d="m 13400,5670 c 0,680 -276,1296 -721,1742 -69,69 -143,134 -220,195 -468,14 -945,33 -1431,60 -474,26 -939,57 -1395,94 -159,-99 -306,-216 -438,-348 -446,-446 -721,-1062 -721,-1742 0,-680 276,-1296 721,-1742 148,-148 315,-278 497,-384 171,-9 327,-16 465,-22 648,-26 1339,-40 1899,-46 231,118 440,271 621,452 446,446 721,1062 721,1742 z"
           class="fil34"
           inkscape:connector-curvature="0"
           style="fill:#5e5c6f;fill-rule:nonzero" /><path
           id="path8153"
           d="m 13309,5670 c 0,655 -265,1248 -695,1677 -97,97 -202,185 -315,265 -417,13 -841,31 -1272,55 -419,23 -831,50 -1236,81 -196,-108 -375,-243 -532,-400 -429,-429 -695,-1022 -695,-1677 0,-655 265,-1248 695,-1677 187,-187 405,-343 646,-459 89,-4 173,-8 252,-11 569,-23 1170,-36 1688,-44 5,2 9,4 14,6 284,120 539,294 754,508 429,429 695,1022 695,1677 z"
           class="fil35"
           inkscape:connector-curvature="0"
           style="fill:#5f5d70;fill-rule:nonzero" /><path
           id="path8155"
           d="m 13217,5670 c 0,825 -438,1547 -1093,1948 -360,13 -726,29 -1097,49 -359,20 -713,42 -1061,68 -774,-365 -1311,-1152 -1311,-2064 0,-990 631,-1833 1513,-2148 472,-19 965,-31 1415,-39 944,279 1633,1153 1633,2187 z"
           class="fil36"
           inkscape:connector-curvature="0"
           style="fill:#5f5d6f;fill-rule:nonzero" /><path
           id="path8157"
           d="m 13126,5670 c 0,854 -489,1594 -1203,1955 -295,11 -594,25 -896,42 -290,16 -577,34 -861,54 -829,-312 -1420,-1112 -1420,-2050 0,-1095 803,-2002 1853,-2164 186,-6 372,-11 554,-15 1107,109 1972,1043 1972,2179 z"
           class="fil37"
           inkscape:connector-curvature="0"
           style="fill:#605e6f;fill-rule:nonzero" /><path
           id="path8159"
           d="m 13035,5670 c 0,900 -566,1667 -1361,1965 -214,9 -429,20 -646,31 -205,11 -409,23 -611,37 -907,-231 -1578,-1054 -1578,-2033 0,-1159 939,-2098 2098,-2098 1159,0 2098,939 2098,2098 z"
           class="fil38"
           inkscape:connector-curvature="0"
           style="fill:#615f70;fill-rule:nonzero" /><path
           id="path8161"
           d="m 12944,5670 c 0,1010 -746,1845 -1717,1986 -66,3 -133,7 -199,11 -54,3 -108,6 -162,9 -1076,-37 -1936,-921 -1936,-2006 0,-1108 899,-2007 2007,-2007 1108,0 2007,899 2007,2007 z"
           class="fil39"
           inkscape:connector-curvature="0"
           style="fill:#616070;fill-rule:nonzero" /><path
           id="path8163"
           d="m 12853,5670 c 0,1058 -858,1916 -1916,1916 -1058,0 -1916,-858 -1916,-1916 0,-1058 858,-1916 1916,-1916 1058,0 1916,858 1916,1916 z"
           class="fil40"
           inkscape:connector-curvature="0"
           style="fill:#626170;fill-rule:nonzero" /><path
           id="path8165"
           d="m 12761,5670 c 0,1008 -817,1825 -1825,1825 -1008,0 -1825,-817 -1825,-1825 0,-1008 817,-1825 1825,-1825 1008,0 1825,817 1825,1825 z"
           class="fil40"
           inkscape:connector-curvature="0"
           style="fill:#626170;fill-rule:nonzero" /><path
           id="path8167"
           d="m 12670,5670 c 0,957 -776,1733 -1733,1733 -957,0 -1733,-776 -1733,-1733 0,-957 776,-1733 1733,-1733 957,0 1733,776 1733,1733 z"
           class="fil41"
           inkscape:connector-curvature="0"
           style="fill:#646271;fill-rule:nonzero" /><path
           id="path8169"
           d="m 12579,5670 c 0,907 -735,1642 -1642,1642 -907,0 -1642,-735 -1642,-1642 0,-907 735,-1642 1642,-1642 907,0 1642,735 1642,1642 z"
           class="fil42"
           inkscape:connector-curvature="0"
           style="fill:#646371;fill-rule:nonzero" /><path
           id="path8171"
           d="m 12488,5670 c 0,857 -694,1551 -1551,1551 -857,0 -1551,-694 -1551,-1551 0,-857 694,-1551 1551,-1551 857,0 1551,694 1551,1551 z"
           class="fil43"
           inkscape:connector-curvature="0"
           style="fill:#656471;fill-rule:nonzero" /><path
           id="path8173"
           d="m 12396,5670 c 0,806 -653,1460 -1460,1460 -806,0 -1460,-653 -1460,-1460 0,-806 653,-1460 1460,-1460 806,0 1460,653 1460,1460 z"
           class="fil44"
           inkscape:connector-curvature="0"
           style="fill:#666571;fill-rule:nonzero" /><path
           id="path8175"
           d="m 12305,5670 c 0,756 -613,1368 -1368,1368 -756,0 -1368,-613 -1368,-1368 0,-756 613,-1368 1368,-1368 756,0 1368,613 1368,1368 z"
           class="fil45"
           inkscape:connector-curvature="0"
           style="fill:#666671;fill-rule:nonzero" /><path
           id="path8177"
           d="m 12214,5670 c 0,705 -572,1277 -1277,1277 -705,0 -1277,-572 -1277,-1277 0,-705 572,-1277 1277,-1277 705,0 1277,572 1277,1277 z"
           class="fil46"
           inkscape:connector-curvature="0"
           style="fill:#676771;fill-rule:nonzero" /><path
           id="path8179"
           d="m 12123,5670 c 0,655 -531,1186 -1186,1186 -655,0 -1186,-531 -1186,-1186 0,-655 531,-1186 1186,-1186 655,0 1186,531 1186,1186 z"
           class="fil47"
           inkscape:connector-curvature="0"
           style="fill:#686872;fill-rule:nonzero" /><path
           id="path8181"
           d="m 12032,5670 c 0,605 -490,1095 -1095,1095 -605,0 -1095,-490 -1095,-1095 0,-605 490,-1095 1095,-1095 605,0 1095,490 1095,1095 z"
           class="fil48"
           inkscape:connector-curvature="0"
           style="fill:#686972;fill-rule:nonzero" /><path
           id="path8183"
           d="m 11940,5670 c 0,554 -449,1003 -1003,1003 -554,0 -1003,-449 -1003,-1003 0,-554 449,-1003 1003,-1003 554,0 1003,449 1003,1003 z"
           class="fil49"
           inkscape:connector-curvature="0"
           style="fill:#696972;fill-rule:nonzero" /><path
           id="path8185"
           d="m 11849,5670 c 0,504 -408,912 -912,912 -504,0 -912,-408 -912,-912 0,-504 408,-912 912,-912 504,0 912,408 912,912 z"
           class="fil50"
           inkscape:connector-curvature="0"
           style="fill:#6a6a72;fill-rule:nonzero" /><path
           id="path8187"
           d="m 11758,5670 c 0,453 -368,821 -821,821 -453,0 -821,-368 -821,-821 0,-453 368,-821 821,-821 453,0 821,368 821,821 z"
           class="fil51"
           inkscape:connector-curvature="0"
           style="fill:#6b6b73;fill-rule:nonzero" /><path
           id="path8189"
           d="m 11667,5670 c 0,403 -327,730 -730,730 -403,0 -730,-327 -730,-730 0,-403 327,-730 730,-730 403,0 730,327 730,730 z"
           class="fil52"
           inkscape:connector-curvature="0"
           style="fill:#6b6c73;fill-rule:nonzero" /><path
           id="path8191"
           d="m 11575,5670 c 0,353 -286,639 -639,639 -353,0 -639,-286 -639,-639 0,-353 286,-639 639,-639 353,0 639,286 639,639 z"
           class="fil53"
           inkscape:connector-curvature="0"
           style="fill:#6c6d73;fill-rule:nonzero" /><path
           id="path8193"
           d="m 11484,5670 c 0,302 -245,547 -547,547 -302,0 -547,-245 -547,-547 0,-302 245,-547 547,-547 302,0 547,245 547,547 z"
           class="fil54"
           inkscape:connector-curvature="0"
           style="fill:#6d6d72;fill-rule:nonzero" /><path
           id="path8195"
           d="m 11393,5670 c 0,252 -204,456 -456,456 -252,0 -456,-204 -456,-456 0,-252 204,-456 456,-456 252,0 456,204 456,456 z"
           class="fil55"
           inkscape:connector-curvature="0"
           style="fill:#6e6e73;fill-rule:nonzero" /><path
           id="path8197"
           d="m 11302,5670 c 0,202 -163,365 -365,365 -202,0 -365,-163 -365,-365 0,-202 163,-365 365,-365 202,0 365,163 365,365 z"
           class="fil56"
           inkscape:connector-curvature="0"
           style="fill:#6e6f74;fill-rule:nonzero" /><path
           id="path8199"
           d="m 11210,5670 c 0,151 -123,274 -274,274 -151,0 -274,-123 -274,-274 0,-151 123,-274 274,-274 151,0 274,123 274,274 z"
           class="fil57"
           inkscape:connector-curvature="0"
           style="fill:#6f7074;fill-rule:nonzero" /><path
           id="path8201"
           d="m 11119,5670 c 0,101 -82,182 -182,182 -101,0 -182,-82 -182,-182 0,-101 82,-182 182,-182 101,0 182,82 182,182 z"
           class="fil58"
           inkscape:connector-curvature="0"
           style="fill:#707174;fill-rule:nonzero" /><path
           id="path8203"
           d="m 11028,5670 c 0,50 -41,91 -91,91 -50,0 -91,-41 -91,-91 0,-50 41,-91 91,-91 50,0 91,41 91,91 z"
           class="fil59"
           inkscape:connector-curvature="0"
           style="fill:#717275;fill-rule:nonzero" /></g><g
         id="g8205"><path
           id="path8207"
           d="m 7071,921 5490,0 c 101,140 204,296 305,469 152,262 270,511 361,736 -696,14 -1392,11 -2087,35 -1444,51 -2832,55 -4159,23 -44,-233 -73,-558 0,-930 24,-122 56,-234 91,-333 z"
           class="fil60"
           inkscape:connector-curvature="0"
           style="fill:#2e312e;fill-rule:nonzero" /></g><g
         id="g8209"><path
           id="path8211"
           d="m 7329,339 c -47,34 -116,91 -174,182 -85,132 -102,261 -106,325 1865,0 3731,0 5596,0 10,-47 24,-151 -15,-272 -40,-125 -115,-202 -151,-234 -1717,0 -3433,0 -5150,0 z"
           class="fil61"
           inkscape:connector-curvature="0"
           style="fill:#728f4e;fill-rule:nonzero" /></g><g
         id="g8213"><g
           id="g8215"><polygon
             id="polygon8217"
             points="11730,15910 8311,16273 8402,11130 11730,10919 "
             class="fil62"
             style="fill:#cbc8d6;fill-rule:nonzero" /></g><g
           id="g8219"><path
             id="path8221"
             d="m 8304,16281 0,-9 91,-5149 3342,-213 0,5006 -7,1 -3427,364 z m 106,-5144 0,0 -90,5127 3403,-361 0,-4976 -3312,211 z"
             class="fil63"
             inkscape:connector-curvature="0"
             style="fill:#383230;fill-rule:nonzero" /></g></g><g
         id="g8223"><polygon
           id="polygon8225"
           points="14485,15502 12065,15807 12126,13157 14485,12961 "
           class="fil62"
           style="fill:#cbc8d6;fill-rule:nonzero" /><path
           id="path8227"
           d="m 12058,15816 61,-2665 7,-1 2368,-197 0,2556 -7,1 -2429,306 z m 76,-2651 0,0 -60,2634 2405,-303 0,-2526 -2345,195 z"
           class="fil63"
           inkscape:connector-curvature="0"
           style="fill:#383230;fill-rule:nonzero" /></g><g
         id="g8229"><polygon
           id="polygon8231"
           points="14808,10919 14671,10737 12705,10904 12705,12961 14520,12840 14808,12537 "
           class="fil62"
           style="fill:#cbc8d6;fill-rule:nonzero" /><path
           id="path8233"
           d="m 12698,12969 0,-2072 7,-1 1970,-167 140,187 0,1624 -2,2 -289,305 -3,0 -1823,122 z m 15,-2058 0,0 0,2042 1804,-120 283,-298 0,-1613 -132,-176 -1955,165 z"
           class="fil63"
           inkscape:connector-curvature="0"
           style="fill:#383230;fill-rule:nonzero" /></g><g
         id="g8235"><path
           id="path8237"
           d="m 13628,12441 c 81,-10 444,-30 444,-30 l 0,353 -444,30 0,-353 z"
           class="fil64"
           inkscape:connector-curvature="0"
           style="fill:#5c5663;fill-rule:nonzero" /></g><g
         id="g8239"><path
           id="path8241"
           d="m 10203,11438 c 0,75 -61,136 -136,136 -75,0 -136,-61 -136,-136 0,-75 61,-136 136,-136 75,0 136,61 136,136 z"
           class="fil64"
           inkscape:connector-curvature="0"
           style="fill:#5c5663;fill-rule:nonzero" /></g><g
         id="g8243"><path
           id="path8245"
           d="m 13137,12033 c 0,75 -61,136 -136,136 -75,0 -136,-61 -136,-136 0,-75 61,-136 136,-136 75,0 136,61 136,136 z"
           class="fil64"
           inkscape:connector-curvature="0"
           style="fill:#5c5663;fill-rule:nonzero" /></g><g
         id="g8247"><path
           id="path8249"
           d="m 12587,14589 c 0,75 -61,136 -136,136 -75,0 -136,-61 -136,-136 0,-75 61,-136 136,-136 75,0 136,61 136,136 z"
           class="fil64"
           inkscape:connector-curvature="0"
           style="fill:#5c5663;fill-rule:nonzero" /></g><g
         id="g8251"><path
           id="path8253"
           d="m 14423,10979 c 0,56 -45,101 -101,101 -56,0 -101,-45 -101,-101 0,-56 45,-101 101,-101 56,0 101,45 101,101 z"
           class="fil64"
           inkscape:connector-curvature="0"
           style="fill:#5c5663;fill-rule:nonzero" /></g></g></g></svg>